<svg width="245" height="142" viewBox="0 0 245 142" fill="none" xmlns="http://www.w3.org/2000/svg">
<rect width="245" height="142" rx="12" fill="url(#paint0_linear_2162_9838)"/>
<path d="M26.04 44.108C25.32 44.108 24.654 43.976 24.042 43.712C23.442 43.448 22.962 43.022 22.602 42.434C22.242 41.846 22.062 41.066 22.062 40.094V34.856C22.062 33.884 22.242 33.104 22.602 32.516C22.962 31.928 23.448 31.502 24.06 31.238C24.672 30.974 25.338 30.842 26.058 30.842C26.886 30.842 27.6 30.986 28.2 31.274C28.812 31.55 29.286 31.934 29.622 32.426C29.97 32.906 30.144 33.464 30.144 34.1C30.144 34.508 30.066 34.778 29.91 34.91C29.754 35.03 29.514 35.09 29.19 35.09C28.902 35.09 28.674 35.042 28.506 34.946C28.338 34.838 28.248 34.676 28.236 34.46C28.224 34.304 28.194 34.118 28.146 33.902C28.098 33.686 28.002 33.476 27.858 33.272C27.726 33.056 27.522 32.882 27.246 32.75C26.97 32.606 26.592 32.534 26.112 32.534C25.416 32.534 24.882 32.726 24.51 33.11C24.138 33.482 23.952 34.064 23.952 34.856V40.094C23.952 40.886 24.138 41.474 24.51 41.858C24.894 42.23 25.446 42.416 26.166 42.416C26.622 42.416 26.982 42.35 27.246 42.218C27.522 42.074 27.726 41.9 27.858 41.696C27.99 41.48 28.08 41.258 28.128 41.03C28.176 40.79 28.212 40.574 28.236 40.382C28.248 40.154 28.338 39.992 28.506 39.896C28.686 39.8 28.908 39.752 29.172 39.752C29.508 39.752 29.754 39.818 29.91 39.95C30.066 40.082 30.144 40.346 30.144 40.742C30.144 41.39 29.97 41.972 29.622 42.488C29.286 42.992 28.812 43.388 28.2 43.676C27.588 43.964 26.868 44.108 26.04 44.108ZM35.8323 44.108C35.0643 44.108 34.3743 43.976 33.7623 43.712C33.1623 43.448 32.6823 43.022 32.3223 42.434C31.9743 41.846 31.8003 41.066 31.8003 40.094V34.856C31.8003 33.884 31.9743 33.104 32.3223 32.516C32.6823 31.928 33.1623 31.502 33.7623 31.238C34.3743 30.974 35.0643 30.842 35.8323 30.842C36.5883 30.842 37.2723 30.974 37.8843 31.238C38.4963 31.502 38.9823 31.928 39.3423 32.516C39.7023 33.104 39.8823 33.884 39.8823 34.856V40.094C39.8823 41.066 39.7023 41.846 39.3423 42.434C38.9823 43.022 38.4963 43.448 37.8843 43.712C37.2723 43.976 36.5883 44.108 35.8323 44.108ZM35.8323 42.416C36.4923 42.416 37.0143 42.23 37.3983 41.858C37.7823 41.474 37.9743 40.886 37.9743 40.094V34.856C37.9743 34.064 37.7823 33.482 37.3983 33.11C37.0263 32.726 36.5043 32.534 35.8323 32.534C35.1603 32.534 34.6323 32.726 34.2483 33.11C33.8763 33.482 33.6903 34.064 33.6903 34.856V40.094C33.6903 40.886 33.8763 41.474 34.2483 41.858C34.6323 42.23 35.1603 42.416 35.8323 42.416ZM46.1716 44.108C45.4036 44.108 44.7076 43.976 44.0836 43.712C43.4596 43.448 42.9676 43.022 42.6076 42.434C42.2476 41.846 42.0676 41.066 42.0676 40.094V31.454C42.0676 31.238 42.1636 31.082 42.3556 30.986C42.5476 30.89 42.7696 30.842 43.0216 30.842C43.2496 30.842 43.4656 30.89 43.6696 30.986C43.8736 31.082 43.9756 31.238 43.9756 31.454V40.094C43.9756 40.886 44.1676 41.474 44.5516 41.858C44.9356 42.23 45.4756 42.416 46.1716 42.416C46.8556 42.416 47.3956 42.23 47.7916 41.858C48.1876 41.474 48.3856 40.886 48.3856 40.094V31.454C48.3856 31.238 48.4816 31.082 48.6736 30.986C48.8656 30.89 49.0876 30.842 49.3396 30.842C49.5676 30.842 49.7836 30.89 49.9876 30.986C50.1916 31.082 50.2936 31.238 50.2936 31.454V40.094C50.2936 41.066 50.1076 41.846 49.7356 42.434C49.3756 43.022 48.8836 43.448 48.2596 43.712C47.6356 43.976 46.9396 44.108 46.1716 44.108ZM53.5522 44C53.3122 44 53.0902 43.946 52.8862 43.838C52.6942 43.73 52.5982 43.574 52.5982 43.37V31.472C52.5982 31.244 52.6942 31.082 52.8862 30.986C53.0902 30.89 53.3122 30.842 53.5522 30.842C53.7802 30.842 53.9722 30.878 54.1282 30.95C54.2962 31.01 54.4462 31.118 54.5782 31.274C54.7102 31.43 54.8482 31.646 54.9922 31.922L58.9882 39.716V31.454C58.9882 31.238 59.0842 31.082 59.2762 30.986C59.4802 30.89 59.7022 30.842 59.9422 30.842C60.1822 30.842 60.3982 30.89 60.5902 30.986C60.7942 31.082 60.8962 31.238 60.8962 31.454V43.37C60.8962 43.574 60.7942 43.73 60.5902 43.838C60.3982 43.946 60.1822 44 59.9422 44C59.7022 44 59.4862 43.94 59.2942 43.82C59.1022 43.7 58.9402 43.526 58.8082 43.298L54.5062 35.108V43.37C54.5062 43.574 54.4042 43.73 54.2002 43.838C54.0082 43.946 53.7922 44 53.5522 44ZM66.6341 44C66.3941 44 66.1721 43.946 65.9681 43.838C65.7761 43.73 65.6801 43.574 65.6801 43.37V32.588H62.8901C62.6981 32.588 62.5481 32.498 62.4401 32.318C62.3321 32.138 62.2781 31.934 62.2781 31.706C62.2781 31.49 62.3261 31.292 62.4221 31.112C62.5181 30.932 62.6741 30.842 62.8901 30.842H70.3601C70.5881 30.842 70.7501 30.932 70.8461 31.112C70.9421 31.292 70.9901 31.484 70.9901 31.688C70.9901 31.928 70.9361 32.138 70.8281 32.318C70.7321 32.498 70.5761 32.588 70.3601 32.588H67.5881V43.37C67.5881 43.574 67.4861 43.73 67.2821 43.838C67.0901 43.946 66.8741 44 66.6341 44ZM73.2195 44C72.9675 44 72.7635 43.94 72.6075 43.82C72.4515 43.7 72.3735 43.556 72.3735 43.388V31.454C72.3735 31.286 72.4515 31.142 72.6075 31.022C72.7635 30.902 72.9675 30.842 73.2195 30.842H76.4055C77.1615 30.842 77.8455 30.974 78.4575 31.238C79.0815 31.502 79.5675 31.928 79.9155 32.516C80.2755 33.104 80.4555 33.884 80.4555 34.856V39.986C80.4555 40.958 80.2755 41.738 79.9155 42.326C79.5675 42.914 79.0815 43.34 78.4575 43.604C77.8455 43.868 77.1615 44 76.4055 44H73.2195ZM74.2815 42.308H76.4055C77.0775 42.308 77.5995 42.122 77.9715 41.75C78.3555 41.366 78.5475 40.778 78.5475 39.986V34.856C78.5475 34.064 78.3555 33.482 77.9715 33.11C77.5995 32.726 77.0775 32.534 76.4055 32.534H74.2815V42.308ZM86.5979 44.108C85.8299 44.108 85.1399 43.976 84.5279 43.712C83.9279 43.448 83.4479 43.022 83.0879 42.434C82.7399 41.846 82.5659 41.066 82.5659 40.094V34.856C82.5659 33.884 82.7399 33.104 83.0879 32.516C83.4479 31.928 83.9279 31.502 84.5279 31.238C85.1399 30.974 85.8299 30.842 86.5979 30.842C87.3539 30.842 88.0379 30.974 88.6499 31.238C89.2619 31.502 89.7479 31.928 90.1079 32.516C90.4679 33.104 90.6479 33.884 90.6479 34.856V40.094C90.6479 41.066 90.4679 41.846 90.1079 42.434C89.7479 43.022 89.2619 43.448 88.6499 43.712C88.0379 43.976 87.3539 44.108 86.5979 44.108ZM86.5979 42.416C87.2579 42.416 87.7799 42.23 88.1639 41.858C88.5479 41.474 88.7399 40.886 88.7399 40.094V34.856C88.7399 34.064 88.5479 33.482 88.1639 33.11C87.7919 32.726 87.2699 32.534 86.5979 32.534C85.9259 32.534 85.3979 32.726 85.0139 33.11C84.6419 33.482 84.4559 34.064 84.4559 34.856V40.094C84.4559 40.886 84.6419 41.474 85.0139 41.858C85.3979 42.23 85.9259 42.416 86.5979 42.416ZM96.7392 44.108C96.4752 44.108 96.2232 44.054 95.9832 43.946C95.7432 43.838 95.5872 43.676 95.5152 43.46L91.9512 31.796C91.9392 31.736 91.9332 31.676 91.9332 31.616C91.9332 31.46 91.9932 31.328 92.1132 31.22C92.2332 31.1 92.3832 31.01 92.5632 30.95C92.7552 30.878 92.9412 30.842 93.1212 30.842C93.2772 30.842 93.4152 30.872 93.5352 30.932C93.6672 30.992 93.7512 31.094 93.7872 31.238L96.7212 41.498L98.3592 35.054C98.4072 34.862 98.5212 34.724 98.7012 34.64C98.8932 34.544 99.0912 34.496 99.2952 34.496C99.5232 34.496 99.7272 34.544 99.9072 34.64C100.087 34.724 100.201 34.862 100.249 35.054L101.887 41.498L104.821 31.238C104.869 31.094 104.953 30.992 105.073 30.932C105.193 30.872 105.331 30.842 105.487 30.842C105.667 30.842 105.847 30.878 106.027 30.95C106.207 31.01 106.357 31.1 106.477 31.22C106.609 31.328 106.675 31.46 106.675 31.616C106.675 31.676 106.663 31.736 106.639 31.796L103.093 43.46C103.021 43.676 102.865 43.838 102.625 43.946C102.397 44.054 102.145 44.108 101.869 44.108C101.605 44.108 101.353 44.054 101.113 43.946C100.873 43.838 100.729 43.676 100.681 43.46L99.2952 38.024L97.9452 43.46C97.8852 43.676 97.7352 43.838 97.4952 43.946C97.2672 44.054 97.0152 44.108 96.7392 44.108ZM109.046 44C108.806 44 108.584 43.946 108.38 43.838C108.188 43.73 108.092 43.574 108.092 43.37V31.472C108.092 31.244 108.188 31.082 108.38 30.986C108.584 30.89 108.806 30.842 109.046 30.842C109.274 30.842 109.466 30.878 109.622 30.95C109.79 31.01 109.94 31.118 110.072 31.274C110.204 31.43 110.342 31.646 110.486 31.922L114.482 39.716V31.454C114.482 31.238 114.578 31.082 114.77 30.986C114.974 30.89 115.196 30.842 115.436 30.842C115.676 30.842 115.892 30.89 116.084 30.986C116.288 31.082 116.39 31.238 116.39 31.454V43.37C116.39 43.574 116.288 43.73 116.084 43.838C115.892 43.946 115.676 44 115.436 44C115.196 44 114.98 43.94 114.788 43.82C114.596 43.7 114.434 43.526 114.302 43.298L110 35.108V43.37C110 43.574 109.898 43.73 109.694 43.838C109.502 43.946 109.286 44 109.046 44ZM123.32 44C123.08 44 122.858 43.946 122.654 43.838C122.462 43.73 122.366 43.574 122.366 43.37V31.472C122.366 31.244 122.462 31.082 122.654 30.986C122.858 30.89 123.08 30.842 123.32 30.842C123.548 30.842 123.74 30.878 123.896 30.95C124.064 31.01 124.214 31.118 124.346 31.274C124.478 31.43 124.616 31.646 124.76 31.922L128.756 39.716V31.454C128.756 31.238 128.852 31.082 129.044 30.986C129.248 30.89 129.47 30.842 129.71 30.842C129.95 30.842 130.166 30.89 130.358 30.986C130.562 31.082 130.664 31.238 130.664 31.454V43.37C130.664 43.574 130.562 43.73 130.358 43.838C130.166 43.946 129.95 44 129.71 44C129.47 44 129.254 43.94 129.062 43.82C128.87 43.7 128.708 43.526 128.576 43.298L124.274 35.108V43.37C124.274 43.574 124.172 43.73 123.968 43.838C123.776 43.946 123.56 44 123.32 44ZM133.27 44C133.102 44 132.922 43.964 132.73 43.892C132.538 43.82 132.382 43.73 132.262 43.622C132.142 43.502 132.082 43.364 132.082 43.208C132.082 43.172 132.088 43.118 132.1 43.046L135.682 31.382C135.754 31.166 135.904 31.004 136.132 30.896C136.372 30.788 136.624 30.734 136.888 30.734C137.164 30.734 137.416 30.788 137.644 30.896C137.884 31.004 138.04 31.166 138.112 31.382L141.676 43.046C141.7 43.118 141.712 43.172 141.712 43.208C141.712 43.352 141.646 43.484 141.514 43.604C141.394 43.724 141.238 43.82 141.046 43.892C140.866 43.964 140.686 44 140.506 44C140.35 44 140.212 43.97 140.092 43.91C139.984 43.85 139.906 43.748 139.858 43.604L139.12 41.048H134.656L133.936 43.604C133.9 43.748 133.816 43.85 133.684 43.91C133.564 43.97 133.426 44 133.27 44ZM135.088 39.518H138.688L136.888 33.344L135.088 39.518ZM144.08 44C143.84 44 143.618 43.946 143.414 43.838C143.222 43.73 143.125 43.574 143.125 43.37V31.796C143.125 31.436 143.222 31.19 143.414 31.058C143.618 30.914 143.84 30.842 144.08 30.842C144.308 30.842 144.506 30.878 144.674 30.95C144.842 31.01 144.998 31.118 145.142 31.274C145.286 31.43 145.436 31.646 145.592 31.922L148.112 36.692L150.668 31.922C150.824 31.646 150.968 31.43 151.1 31.274C151.244 31.118 151.4 31.01 151.568 30.95C151.736 30.878 151.934 30.842 152.162 30.842C152.414 30.842 152.636 30.914 152.828 31.058C153.02 31.19 153.116 31.436 153.116 31.796V43.37C153.116 43.574 153.014 43.73 152.81 43.838C152.618 43.946 152.402 44 152.162 44C151.922 44 151.7 43.946 151.496 43.838C151.304 43.73 151.208 43.574 151.208 43.37V34.73L148.796 39.194C148.7 39.35 148.592 39.464 148.472 39.536C148.352 39.596 148.226 39.626 148.094 39.626C147.986 39.626 147.872 39.596 147.752 39.536C147.632 39.476 147.53 39.362 147.446 39.194L145.034 34.622V43.37C145.034 43.574 144.932 43.73 144.728 43.838C144.536 43.946 144.32 44 144.08 44ZM156.329 44C156.125 44 155.933 43.946 155.753 43.838C155.573 43.73 155.483 43.574 155.483 43.37V31.472C155.483 31.268 155.573 31.112 155.753 31.004C155.933 30.896 156.125 30.842 156.329 30.842H162.737C162.965 30.842 163.127 30.932 163.223 31.112C163.319 31.292 163.367 31.478 163.367 31.67C163.367 31.898 163.313 32.102 163.205 32.282C163.097 32.45 162.941 32.534 162.737 32.534H157.391V36.656H160.163C160.367 36.656 160.523 36.734 160.631 36.89C160.739 37.046 160.793 37.226 160.793 37.43C160.793 37.598 160.745 37.766 160.649 37.934C160.553 38.09 160.391 38.168 160.163 38.168H157.391V42.308H162.737C162.941 42.308 163.097 42.392 163.205 42.56C163.313 42.728 163.367 42.932 163.367 43.172C163.367 43.364 163.319 43.55 163.223 43.73C163.127 43.91 162.965 44 162.737 44H156.329Z" fill="white"/>
<path d="M21.8916 121H23.0464V117.584C23.0464 116.698 23.5728 116.102 24.5181 116.102C25.3345 116.102 25.7695 116.574 25.7695 117.509V121H26.9243V117.224C26.9243 115.833 26.1562 115.043 24.9102 115.043C24.0293 115.043 23.4116 115.436 23.127 116.091H23.0356V112.868H21.8916V121ZM31.0225 121.113C32.7305 121.113 33.7778 119.969 33.7778 118.073C33.7778 116.188 32.7251 115.038 31.0225 115.038C29.3145 115.038 28.2617 116.188 28.2617 118.073C28.2617 119.969 29.3091 121.113 31.0225 121.113ZM31.0225 120.087C30.0181 120.087 29.4541 119.351 29.4541 118.073C29.4541 116.805 30.0181 116.064 31.0225 116.064C32.0215 116.064 32.5908 116.805 32.5908 118.073C32.5908 119.346 32.0215 120.087 31.0225 120.087ZM40.0996 115.151H38.9448V118.572C38.9448 119.491 38.4346 120.044 37.5 120.044C36.6514 120.044 36.27 119.593 36.27 118.647V115.151H35.1152V118.948C35.1152 120.323 35.835 121.113 37.1294 121.113C38.0156 121.113 38.6118 120.737 38.8965 120.071H38.9878V121H40.0996V115.151ZM41.7754 121H42.9302V117.546C42.9302 116.725 43.5479 116.171 44.4233 116.171C44.6274 116.171 44.9712 116.209 45.0679 116.241V115.103C44.9443 115.07 44.7241 115.054 44.5522 115.054C43.7896 115.054 43.1396 115.473 42.9731 116.048H42.8872V115.151H41.7754V121ZM45.9272 116.805C45.9272 117.675 46.4429 118.175 47.5547 118.438L48.5752 118.674C49.1606 118.814 49.4346 119.04 49.4346 119.389C49.4346 119.856 48.9243 120.178 48.2046 120.178C47.5063 120.178 47.0767 119.899 46.9316 119.448H45.7769C45.8789 120.484 46.7866 121.113 48.1777 121.113C49.5742 121.113 50.6001 120.377 50.6001 119.276C50.6001 118.417 50.0791 117.938 48.9673 117.681L47.9951 117.455C47.3613 117.31 47.0659 117.09 47.0659 116.741C47.0659 116.284 47.5547 115.978 48.1992 115.978C48.8545 115.978 49.2734 116.252 49.3809 116.682H50.4873C50.3745 115.65 49.5151 115.038 48.1992 115.038C46.8779 115.038 45.9272 115.769 45.9272 116.805Z" fill="white"/>
<rect opacity="0.8" x="21" y="60" width="27" height="46" rx="5" fill="white"/>
<rect opacity="0.8" x="51" y="60" width="27" height="46" rx="5" fill="white"/>
<rect x="84" y="77" width="3.5" height="3.5" rx="1" fill="white"/>
<rect x="84" y="86" width="3.5" height="3.5" rx="1" fill="white"/>
<mask id="path-8-outside-1_2162_9838" maskUnits="userSpaceOnUse" x="29" y="72" width="11" height="21" fill="black">
<rect fill="white" x="29" y="72" width="11" height="21"/>
<path d="M39.5361 87.623C39.5361 88.2646 39.4131 88.8667 39.167 89.4292C38.9297 89.9917 38.6001 90.4839 38.1782 90.9058C37.7563 91.3276 37.2642 91.6616 36.7017 91.9077C36.1392 92.145 35.5371 92.2637 34.8955 92.2637H34.0913C33.4497 92.2637 32.8433 92.145 32.272 91.9077C31.7095 91.6616 31.2173 91.3276 30.7954 90.9058C30.3735 90.4839 30.0396 89.9917 29.7935 89.4292C29.5562 88.8667 29.4375 88.2646 29.4375 87.623V77.4717C29.4375 76.8301 29.5562 76.228 29.7935 75.6655C30.0396 75.103 30.3735 74.6108 30.7954 74.189C31.2173 73.7671 31.7095 73.4375 32.272 73.2002C32.8433 72.9541 33.4497 72.8311 34.0913 72.8311H34.8955C35.5371 72.8311 36.1392 72.9541 36.7017 73.2002C37.2642 73.4375 37.7563 73.7671 38.1782 74.189C38.6001 74.6108 38.9297 75.103 39.167 75.6655C39.4131 76.228 39.5361 76.8301 39.5361 77.4717V87.623ZM37.8354 77.4717C37.8354 77.0498 37.7563 76.6587 37.5981 76.2983C37.4399 75.9292 37.2246 75.6084 36.9521 75.3359C36.6797 75.0635 36.3589 74.8481 35.9897 74.6899C35.6294 74.5317 35.2383 74.4526 34.8164 74.4526H34.1704C33.7485 74.4526 33.353 74.5317 32.9839 74.6899C32.6235 74.8481 32.3027 75.0635 32.0215 75.3359C31.749 75.6084 31.5337 75.9292 31.3755 76.2983C31.2173 76.6587 31.1382 77.0498 31.1382 77.4717V87.623C31.1382 88.0449 31.2173 88.4404 31.3755 88.8096C31.5337 89.1699 31.749 89.4907 32.0215 89.772C32.3027 90.0444 32.6235 90.2598 32.9839 90.418C33.353 90.5762 33.7485 90.6553 34.1704 90.6553H34.8164C35.2383 90.6553 35.6294 90.5762 35.9897 90.418C36.3589 90.2598 36.6797 90.0444 36.9521 89.772C37.2246 89.4907 37.4399 89.1699 37.5981 88.8096C37.7563 88.4404 37.8354 88.0449 37.8354 87.623V77.4717Z"/>
</mask>
<path d="M39.5361 87.623C39.5361 88.2646 39.4131 88.8667 39.167 89.4292C38.9297 89.9917 38.6001 90.4839 38.1782 90.9058C37.7563 91.3276 37.2642 91.6616 36.7017 91.9077C36.1392 92.145 35.5371 92.2637 34.8955 92.2637H34.0913C33.4497 92.2637 32.8433 92.145 32.272 91.9077C31.7095 91.6616 31.2173 91.3276 30.7954 90.9058C30.3735 90.4839 30.0396 89.9917 29.7935 89.4292C29.5562 88.8667 29.4375 88.2646 29.4375 87.623V77.4717C29.4375 76.8301 29.5562 76.228 29.7935 75.6655C30.0396 75.103 30.3735 74.6108 30.7954 74.189C31.2173 73.7671 31.7095 73.4375 32.272 73.2002C32.8433 72.9541 33.4497 72.8311 34.0913 72.8311H34.8955C35.5371 72.8311 36.1392 72.9541 36.7017 73.2002C37.2642 73.4375 37.7563 73.7671 38.1782 74.189C38.6001 74.6108 38.9297 75.103 39.167 75.6655C39.4131 76.228 39.5361 76.8301 39.5361 77.4717V87.623ZM37.8354 77.4717C37.8354 77.0498 37.7563 76.6587 37.5981 76.2983C37.4399 75.9292 37.2246 75.6084 36.9521 75.3359C36.6797 75.0635 36.3589 74.8481 35.9897 74.6899C35.6294 74.5317 35.2383 74.4526 34.8164 74.4526H34.1704C33.7485 74.4526 33.353 74.5317 32.9839 74.6899C32.6235 74.8481 32.3027 75.0635 32.0215 75.3359C31.749 75.6084 31.5337 75.9292 31.3755 76.2983C31.2173 76.6587 31.1382 77.0498 31.1382 77.4717V87.623C31.1382 88.0449 31.2173 88.4404 31.3755 88.8096C31.5337 89.1699 31.749 89.4907 32.0215 89.772C32.3027 90.0444 32.6235 90.2598 32.9839 90.418C33.353 90.5762 33.7485 90.6553 34.1704 90.6553H34.8164C35.2383 90.6553 35.6294 90.5762 35.9897 90.418C36.3589 90.2598 36.6797 90.0444 36.9521 89.772C37.2246 89.4907 37.4399 89.1699 37.5981 88.8096C37.7563 88.4404 37.8354 88.0449 37.8354 87.623V77.4717Z" fill="#37A600"/>
<path d="M39.167 89.4292L38.9837 89.349L38.9827 89.3515L39.167 89.4292ZM36.7017 91.9077L36.7794 92.092L36.7818 92.0909L36.7017 91.9077ZM32.272 91.9077L32.1918 92.091L32.1953 92.0924L32.272 91.9077ZM29.7935 89.4292L29.6092 89.5069L29.6102 89.5094L29.7935 89.4292ZM29.7935 75.6655L29.6102 75.5854L29.6092 75.5878L29.7935 75.6655ZM32.272 73.2002L32.3497 73.3845L32.3511 73.3839L32.272 73.2002ZM36.7017 73.2002L36.6215 73.3834L36.6239 73.3845L36.7017 73.2002ZM39.167 75.6655L38.9827 75.7433L38.9838 75.7457L39.167 75.6655ZM37.5981 76.2983L37.4143 76.3771L37.415 76.3787L37.5981 76.2983ZM35.9897 74.6899L35.9093 74.8731L35.911 74.8738L35.9897 74.6899ZM32.9839 74.6899L32.9051 74.5061L32.9035 74.5068L32.9839 74.6899ZM32.0215 75.3359L31.8823 75.1923L31.8801 75.1945L32.0215 75.3359ZM31.3755 76.2983L31.5586 76.3787L31.5593 76.3771L31.3755 76.2983ZM31.3755 88.8096L31.1917 88.8884L31.1924 88.89L31.3755 88.8096ZM32.0215 89.772L31.8778 89.9112L31.8823 89.9156L32.0215 89.772ZM32.9839 90.418L32.9035 90.6011L32.9051 90.6018L32.9839 90.418ZM35.9897 90.418L35.911 90.2341L35.9093 90.2348L35.9897 90.418ZM36.9521 89.772L37.0936 89.9134L37.0958 89.9111L36.9521 89.772ZM37.5981 88.8096L37.7813 88.89L37.782 88.8884L37.5981 88.8096ZM39.3361 87.623C39.3361 88.2383 39.2183 88.813 38.9838 89.349L39.3502 89.5094C39.6079 88.9204 39.7361 88.291 39.7361 87.623H39.3361ZM38.9827 89.3515C38.7552 89.8907 38.44 90.3612 38.0368 90.7643L38.3196 91.0472C38.7602 90.6066 39.1042 90.0927 39.3513 89.5069L38.9827 89.3515ZM38.0368 90.7643C37.6331 91.1681 37.1618 91.4881 36.6215 91.7245L36.7818 92.0909C37.3665 91.8352 37.8796 91.4872 38.3196 91.0472L38.0368 90.7643ZM36.6239 91.7234C36.0873 91.9498 35.5118 92.0637 34.8955 92.0637V92.4637C35.5624 92.4637 36.1911 92.3402 36.7794 92.092L36.6239 91.7234ZM34.8955 92.0637H34.0913V92.4637H34.8955V92.0637ZM34.0913 92.0637C33.475 92.0637 32.8948 91.9498 32.3487 91.723L32.1953 92.0924C32.7918 92.3402 33.4244 92.4637 34.0913 92.4637V92.0637ZM32.3521 91.7245C31.8118 91.4881 31.3406 91.1681 30.9368 90.7643L30.654 91.0472C31.094 91.4872 31.6071 91.8352 32.1918 92.0909L32.3521 91.7245ZM30.9368 90.7643C30.5331 90.3606 30.2131 89.8894 29.9767 89.349L29.6102 89.5094C29.866 90.094 30.214 90.6072 30.654 91.0472L30.9368 90.7643ZM29.9777 89.3515C29.7513 88.8148 29.6375 88.2393 29.6375 87.623H29.2375C29.2375 88.29 29.361 88.9186 29.6092 89.5069L29.9777 89.3515ZM29.6375 87.623V77.4717H29.2375V87.623H29.6375ZM29.6375 77.4717C29.6375 76.8554 29.7513 76.2799 29.9777 75.7433L29.6092 75.5878C29.361 76.1761 29.2375 76.8048 29.2375 77.4717H29.6375ZM29.9767 75.7457C30.2131 75.2054 30.5331 74.7341 30.9368 74.3304L30.654 74.0475C30.214 74.4876 29.866 75.0007 29.6102 75.5854L29.9767 75.7457ZM30.9368 74.3304C31.34 73.9272 31.8104 73.612 32.3497 73.3845L32.1942 73.0159C31.6085 73.263 31.0946 73.607 30.654 74.0475L30.9368 74.3304ZM32.3511 73.3839C32.8966 73.1489 33.476 73.0311 34.0913 73.0311V72.6311C33.4234 72.6311 32.7899 72.7593 32.1928 73.0165L32.3511 73.3839ZM34.0913 73.0311H34.8955V72.6311H34.0913V73.0311ZM34.8955 73.0311C35.5108 73.0311 36.0854 73.1489 36.6215 73.3834L36.7818 73.017C36.1929 72.7593 35.5634 72.6311 34.8955 72.6311V73.0311ZM36.6239 73.3845C37.1632 73.612 37.6336 73.9272 38.0368 74.3304L38.3196 74.0475C37.8791 73.607 37.3651 73.263 36.7794 73.0159L36.6239 73.3845ZM38.0368 74.3304C38.44 74.7336 38.7552 75.204 38.9827 75.7433L39.3513 75.5878C39.1042 75.0021 38.7602 74.4881 38.3196 74.0475L38.0368 74.3304ZM38.9838 75.7457C39.2183 76.2818 39.3361 76.8564 39.3361 77.4717H39.7361C39.7361 76.8038 39.6079 76.1743 39.3502 75.5854L38.9838 75.7457ZM39.3361 77.4717V87.623H39.7361V77.4717H39.3361ZM38.0354 77.4717C38.0354 77.0241 37.9514 76.6054 37.7813 76.2179L37.415 76.3787C37.5613 76.712 37.6354 77.0755 37.6354 77.4717H38.0354ZM37.782 76.2196C37.6142 75.828 37.3848 75.4857 37.0936 75.1945L36.8107 75.4774C37.0644 75.7311 37.2657 76.0304 37.4143 76.3771L37.782 76.2196ZM37.0936 75.1945C36.8024 74.9033 36.4601 74.6739 36.0685 74.5061L35.911 74.8738C36.2577 75.0224 36.557 75.2236 36.8107 75.4774L37.0936 75.1945ZM36.0701 74.5068C35.6827 74.3367 35.2639 74.2526 34.8164 74.2526V74.6526C35.2126 74.6526 35.5761 74.7268 35.9093 74.8731L36.0701 74.5068ZM34.8164 74.2526H34.1704V74.6526H34.8164V74.2526ZM34.1704 74.2526C33.7228 74.2526 33.3004 74.3367 32.9051 74.5061L33.0627 74.8738C33.4057 74.7268 33.7742 74.6526 34.1704 74.6526V74.2526ZM32.9035 74.5068C32.5215 74.6745 32.1807 74.9032 31.8823 75.1923L32.1606 75.4796C32.4247 75.2238 32.7256 75.0218 33.0643 74.8731L32.9035 74.5068ZM31.8801 75.1945C31.5889 75.4857 31.3595 75.828 31.1917 76.2196L31.5593 76.3771C31.7079 76.0304 31.9092 75.7311 32.1629 75.4774L31.8801 75.1945ZM31.1924 76.2179C31.0222 76.6054 30.9382 77.0241 30.9382 77.4717H31.3382C31.3382 77.0755 31.4123 76.712 31.5586 76.3787L31.1924 76.2179ZM30.9382 77.4717V87.623H31.3382V77.4717H30.9382ZM30.9382 87.623C30.9382 88.0706 31.0223 88.4931 31.1917 88.8884L31.5593 88.7308C31.4123 88.3878 31.3382 88.0192 31.3382 87.623H30.9382ZM31.1924 88.89C31.3601 89.272 31.5887 89.6127 31.8778 89.9111L32.1651 89.6328C31.9093 89.3687 31.7073 89.0679 31.5586 88.7292L31.1924 88.89ZM31.8823 89.9156C32.1807 90.2047 32.5215 90.4334 32.9035 90.6011L33.0643 90.2348C32.7256 90.0861 32.4247 89.8842 32.1606 89.6283L31.8823 89.9156ZM32.9051 90.6018C33.3004 90.7712 33.7228 90.8553 34.1704 90.8553V90.4553C33.7742 90.4553 33.4057 90.3811 33.0627 90.2341L32.9051 90.6018ZM34.1704 90.8553H34.8164V90.4553H34.1704V90.8553ZM34.8164 90.8553C35.2639 90.8553 35.6827 90.7712 36.0701 90.6011L35.9093 90.2348C35.5761 90.3811 35.2126 90.4553 34.8164 90.4553V90.8553ZM36.0685 90.6018C36.4601 90.434 36.8024 90.2046 37.0936 89.9134L36.8107 89.6306C36.557 89.8843 36.2577 90.0855 35.911 90.2341L36.0685 90.6018ZM37.0958 89.9111C37.3849 89.6127 37.6136 89.272 37.7813 88.89L37.415 88.7292C37.2663 89.0679 37.0643 89.3687 36.8085 89.6328L37.0958 89.9111ZM37.782 88.8884C37.9514 88.4931 38.0354 88.0706 38.0354 87.623H37.6354C37.6354 88.0192 37.5613 88.3878 37.4143 88.7308L37.782 88.8884ZM38.0354 87.623V77.4717H37.6354V87.623H38.0354Z" fill="#37A600" mask="url(#path-8-outside-1_2162_9838)"/>
<mask id="path-10-outside-2_2162_9838" maskUnits="userSpaceOnUse" x="59" y="72" width="12" height="21" fill="black">
<rect fill="white" x="59" y="72" width="12" height="21"/>
<path d="M59.6748 92V90.3784H64.1836V74.7163L59.6748 76.6147V74.9932L64.1836 73.0947H65.8843V90.3784H70.3931V92H59.6748Z"/>
</mask>
<path d="M59.6748 92V90.3784H64.1836V74.7163L59.6748 76.6147V74.9932L64.1836 73.0947H65.8843V90.3784H70.3931V92H59.6748Z" fill="#37A600"/>
<path d="M59.6748 92H59.4748V92.2H59.6748V92ZM59.6748 90.3784V90.1784H59.4748V90.3784H59.6748ZM64.1836 90.3784V90.5784H64.3836V90.3784H64.1836ZM64.1836 74.7163H64.3836V74.4151L64.106 74.532L64.1836 74.7163ZM59.6748 76.6147H59.4748V76.916L59.7524 76.7991L59.6748 76.6147ZM59.6748 74.9932L59.5972 74.8088L59.4748 74.8604V74.9932H59.6748ZM64.1836 73.0947V72.8947H64.1432L64.106 72.9104L64.1836 73.0947ZM65.8843 73.0947H66.0843V72.8947H65.8843V73.0947ZM65.8843 90.3784H65.6843V90.5784H65.8843V90.3784ZM70.3931 90.3784H70.5931V90.1784H70.3931V90.3784ZM70.3931 92V92.2H70.5931V92H70.3931ZM59.8748 92V90.3784H59.4748V92H59.8748ZM59.6748 90.5784H64.1836V90.1784H59.6748V90.5784ZM64.3836 90.3784V74.7163H63.9836V90.3784H64.3836ZM64.106 74.532L59.5972 76.4304L59.7524 76.7991L64.2612 74.9006L64.106 74.532ZM59.8748 76.6147V74.9932H59.4748V76.6147H59.8748ZM59.7524 75.1775L64.2612 73.2791L64.106 72.9104L59.5972 74.8088L59.7524 75.1775ZM64.1836 73.2947H65.8843V72.8947H64.1836V73.2947ZM65.6843 73.0947V90.3784H66.0843V73.0947H65.6843ZM65.8843 90.5784H70.3931V90.1784H65.8843V90.5784ZM70.1931 90.3784V92H70.5931V90.3784H70.1931ZM70.3931 91.8H59.6748V92.2H70.3931V91.8Z" fill="#37A600" mask="url(#path-10-outside-2_2162_9838)"/>
<path d="M94.8379 121H95.9927V117.423C95.9927 116.671 96.5244 116.096 97.228 116.096C97.9155 116.096 98.356 116.499 98.356 117.16V121H99.4893V117.321C99.4893 116.633 99.978 116.096 100.725 116.096C101.482 116.096 101.858 116.483 101.858 117.272V121H103.013V116.972C103.013 115.752 102.325 115.038 101.144 115.038C100.333 115.038 99.6611 115.452 99.3657 116.091H99.2744C99.0166 115.452 98.4634 115.038 97.6631 115.038C96.8843 115.038 96.2935 115.43 96.0356 116.091H95.9497V115.151H94.8379V121ZM104.656 121H105.806V115.151H104.656V121ZM105.231 114.136C105.634 114.136 105.961 113.797 105.961 113.384C105.961 112.965 105.634 112.626 105.231 112.626C104.828 112.626 104.5 112.965 104.5 113.384C104.5 113.797 104.828 114.136 105.231 114.136ZM107.503 121H108.658V117.579C108.658 116.666 109.2 116.096 110.054 116.096C110.908 116.096 111.316 116.563 111.316 117.503V121H112.471V117.213C112.471 115.822 111.751 115.038 110.446 115.038C109.565 115.038 108.985 115.43 108.701 116.08H108.615V115.151H107.503V121ZM119.029 115.151H117.875V118.572C117.875 119.491 117.364 120.044 116.43 120.044C115.581 120.044 115.2 119.593 115.2 118.647V115.151H114.045V118.948C114.045 120.323 114.765 121.113 116.059 121.113C116.945 121.113 117.542 120.737 117.826 120.071H117.917V121H119.029V115.151ZM121.113 113.695V115.178H120.184V116.15H121.113V119.453C121.113 120.581 121.624 121.032 122.907 121.032C123.133 121.032 123.348 121.005 123.536 120.973V120.012C123.375 120.028 123.272 120.039 123.095 120.039C122.521 120.039 122.268 119.77 122.268 119.158V116.15H123.536V115.178H122.268V113.695H121.113ZM127.231 116.021C128.085 116.021 128.644 116.617 128.67 117.536H125.716C125.781 116.623 126.377 116.021 127.231 116.021ZM128.665 119.421C128.45 119.877 127.972 120.13 127.274 120.13C126.35 120.13 125.754 119.48 125.716 118.454V118.39H129.847V117.987C129.847 116.15 128.864 115.038 127.236 115.038C125.587 115.038 124.54 116.225 124.54 118.094C124.54 119.963 125.566 121.113 127.242 121.113C128.579 121.113 129.524 120.463 129.777 119.421H128.665ZM131.098 116.805C131.098 117.675 131.614 118.175 132.726 118.438L133.746 118.674C134.332 118.814 134.605 119.04 134.605 119.389C134.605 119.856 134.095 120.178 133.375 120.178C132.677 120.178 132.248 119.899 132.103 119.448H130.948C131.05 120.484 131.958 121.113 133.349 121.113C134.745 121.113 135.771 120.377 135.771 119.276C135.771 118.417 135.25 117.938 134.138 117.681L133.166 117.455C132.532 117.31 132.237 117.09 132.237 116.741C132.237 116.284 132.726 115.978 133.37 115.978C134.025 115.978 134.444 116.252 134.552 116.682H135.658C135.545 115.65 134.686 115.038 133.37 115.038C132.049 115.038 131.098 115.769 131.098 116.805Z" fill="white"/>
<rect opacity="0.8" x="94" y="60" width="27" height="46" rx="5" fill="white"/>
<rect opacity="0.8" x="124" y="60" width="27" height="46" rx="5" fill="white"/>
<rect x="157" y="77" width="3.5" height="3.5" rx="1" fill="white"/>
<rect x="157" y="86" width="3.5" height="3.5" rx="1" fill="white"/>
<mask id="path-17-outside-3_2162_9838" maskUnits="userSpaceOnUse" x="101" y="72" width="12" height="21" fill="black">
<rect fill="white" x="101" y="72" width="12" height="21"/>
<path d="M107.039 74.4526C106.617 74.4526 106.221 74.5317 105.852 74.6899C105.492 74.8481 105.175 75.0635 104.903 75.3359C104.63 75.6084 104.415 75.9292 104.257 76.2983C104.099 76.6587 104.02 77.0498 104.02 77.4717V78.2363L102.319 77.9595V77.4717C102.319 76.8301 102.438 76.228 102.675 75.6655C102.921 75.103 103.255 74.6108 103.677 74.189C104.099 73.7671 104.591 73.4375 105.153 73.2002C105.716 72.9541 106.318 72.8311 106.959 72.8311H107.764C108.405 72.8311 109.007 72.9453 109.57 73.1738C110.141 73.4023 110.638 73.7319 111.06 74.1626C111.481 74.5933 111.811 75.1118 112.048 75.7183C112.294 76.3159 112.417 76.9927 112.417 77.7485C112.417 78.4956 112.303 79.2471 112.075 80.0029C111.855 80.7588 111.561 81.5015 111.191 82.231C110.831 82.9604 110.414 83.668 109.939 84.3535C109.473 85.0391 108.994 85.6851 108.502 86.2915C107.351 87.7065 106.045 89.0688 104.586 90.3784H112.549V92H101.91V90.6553C103.554 89.3018 105.021 87.8999 106.313 86.4497C106.867 85.8257 107.408 85.1621 107.935 84.459C108.462 83.7559 108.933 83.0352 109.346 82.2969C109.759 81.5498 110.088 80.7939 110.334 80.0293C110.589 79.2559 110.717 78.4956 110.717 77.7485C110.717 77.1948 110.633 76.7114 110.466 76.2983C110.299 75.8853 110.075 75.5425 109.794 75.27C109.513 74.9976 109.188 74.7954 108.818 74.6636C108.458 74.5229 108.08 74.4526 107.685 74.4526H107.039Z"/>
</mask>
<path d="M107.039 74.4526C106.617 74.4526 106.221 74.5317 105.852 74.6899C105.492 74.8481 105.175 75.0635 104.903 75.3359C104.63 75.6084 104.415 75.9292 104.257 76.2983C104.099 76.6587 104.02 77.0498 104.02 77.4717V78.2363L102.319 77.9595V77.4717C102.319 76.8301 102.438 76.228 102.675 75.6655C102.921 75.103 103.255 74.6108 103.677 74.189C104.099 73.7671 104.591 73.4375 105.153 73.2002C105.716 72.9541 106.318 72.8311 106.959 72.8311H107.764C108.405 72.8311 109.007 72.9453 109.57 73.1738C110.141 73.4023 110.638 73.7319 111.06 74.1626C111.481 74.5933 111.811 75.1118 112.048 75.7183C112.294 76.3159 112.417 76.9927 112.417 77.7485C112.417 78.4956 112.303 79.2471 112.075 80.0029C111.855 80.7588 111.561 81.5015 111.191 82.231C110.831 82.9604 110.414 83.668 109.939 84.3535C109.473 85.0391 108.994 85.6851 108.502 86.2915C107.351 87.7065 106.045 89.0688 104.586 90.3784H112.549V92H101.91V90.6553C103.554 89.3018 105.021 87.8999 106.313 86.4497C106.867 85.8257 107.408 85.1621 107.935 84.459C108.462 83.7559 108.933 83.0352 109.346 82.2969C109.759 81.5498 110.088 80.7939 110.334 80.0293C110.589 79.2559 110.717 78.4956 110.717 77.7485C110.717 77.1948 110.633 76.7114 110.466 76.2983C110.299 75.8853 110.075 75.5425 109.794 75.27C109.513 74.9976 109.188 74.7954 108.818 74.6636C108.458 74.5229 108.08 74.4526 107.685 74.4526H107.039Z" fill="#37A600"/>
<path d="M105.852 74.6899L105.773 74.5061L105.772 74.5068L105.852 74.6899ZM104.257 76.2983L104.44 76.3787L104.441 76.3771L104.257 76.2983ZM104.02 78.2363L103.987 78.4337L104.22 78.4715V78.2363H104.02ZM102.319 77.9595H102.119V78.1295L102.287 78.1569L102.319 77.9595ZM102.675 75.6655L102.492 75.5854L102.491 75.5878L102.675 75.6655ZM105.153 73.2002L105.231 73.3845L105.233 73.3834L105.153 73.2002ZM109.57 73.1738L109.495 73.3591L109.496 73.3595L109.57 73.1738ZM112.048 75.7183L111.862 75.7912L111.863 75.7944L112.048 75.7183ZM112.075 80.0029L111.883 79.945L111.883 79.9471L112.075 80.0029ZM111.191 82.231L111.013 82.1407L111.012 82.1424L111.191 82.231ZM109.939 84.3535L109.775 84.2397L109.774 84.2411L109.939 84.3535ZM108.502 86.2915L108.657 86.4177L108.657 86.4175L108.502 86.2915ZM104.586 90.3784L104.453 90.2296L104.064 90.5784H104.586V90.3784ZM112.549 90.3784H112.749V90.1784H112.549V90.3784ZM112.549 92V92.2H112.749V92H112.549ZM101.91 92H101.71V92.2H101.91V92ZM101.91 90.6553L101.783 90.5009L101.71 90.5609V90.6553H101.91ZM106.313 86.4497L106.463 86.5827L106.463 86.5824L106.313 86.4497ZM109.346 82.2969L109.52 82.3945L109.521 82.3937L109.346 82.2969ZM110.334 80.0293L110.145 79.9667L110.144 79.968L110.334 80.0293ZM110.466 76.2983L110.281 76.3733L110.466 76.2983ZM108.818 74.6636L108.746 74.85L108.751 74.8519L108.818 74.6636ZM107.039 74.2526C106.591 74.2526 106.169 74.3367 105.773 74.5061L105.931 74.8738C106.274 74.7268 106.642 74.6526 107.039 74.6526V74.2526ZM105.772 74.5068C105.389 74.6748 105.052 74.9041 104.761 75.1945L105.044 75.4774C105.299 75.2229 105.594 75.0215 105.932 74.8731L105.772 74.5068ZM104.761 75.1945C104.47 75.4857 104.241 75.828 104.073 76.2196L104.441 76.3771C104.589 76.0304 104.791 75.7311 105.044 75.4774L104.761 75.1945ZM104.074 76.2179C103.904 76.6054 103.82 77.0241 103.82 77.4717H104.22C104.22 77.0755 104.294 76.712 104.44 76.3787L104.074 76.2179ZM103.82 77.4717V78.2363H104.22V77.4717H103.82ZM104.052 78.0389L102.351 77.7621L102.287 78.1569L103.987 78.4337L104.052 78.0389ZM102.519 77.9595V77.4717H102.119V77.9595H102.519ZM102.519 77.4717C102.519 76.8554 102.633 76.2799 102.859 75.7433L102.491 75.5878C102.242 76.1761 102.119 76.8048 102.119 77.4717H102.519ZM102.858 75.7457C103.094 75.2054 103.414 74.7341 103.818 74.3304L103.535 74.0475C103.095 74.4876 102.747 75.0007 102.492 75.5854L102.858 75.7457ZM103.818 74.3304C104.221 73.9272 104.692 73.612 105.231 73.3845L105.076 73.0159C104.49 73.263 103.976 73.607 103.535 74.0475L103.818 74.3304ZM105.233 73.3834C105.77 73.1489 106.344 73.0311 106.959 73.0311V72.6311C106.292 72.6311 105.662 72.7593 105.073 73.017L105.233 73.3834ZM106.959 73.0311H107.764V72.6311H106.959V73.0311ZM107.764 73.0311C108.381 73.0311 108.957 73.1409 109.495 73.3591L109.645 72.9885C109.057 72.7498 108.43 72.6311 107.764 72.6311V73.0311ZM109.496 73.3595C110.042 73.5779 110.515 73.8922 110.917 74.3026L111.202 74.0226C110.761 73.5717 110.241 73.2267 109.644 72.9881L109.496 73.3595ZM110.917 74.3026C111.318 74.7125 111.634 75.2077 111.862 75.7911L112.235 75.6454C111.988 75.0159 111.645 74.474 111.202 74.0226L110.917 74.3026ZM111.863 75.7944C112.098 76.3642 112.217 77.0144 112.217 77.7485H112.617C112.617 76.9709 112.491 76.2677 112.233 75.6421L111.863 75.7944ZM112.217 77.7485C112.217 78.4749 112.106 79.2069 111.883 79.9451L112.266 80.0608C112.5 79.2873 112.617 78.5163 112.617 77.7485H112.217ZM111.883 79.9471C111.667 80.6906 111.377 81.4218 111.013 82.1407L111.37 82.3213C111.744 81.5811 112.043 80.827 112.267 80.0588L111.883 79.9471ZM111.012 82.1424C110.656 82.8629 110.244 83.562 109.775 84.2397L110.103 84.4674C110.583 83.774 111.006 83.058 111.371 82.3195L111.012 82.1424ZM109.774 84.2411C109.311 84.9223 108.835 85.5637 108.347 86.1655L108.657 86.4175C109.153 85.8064 109.636 85.1559 110.104 84.4659L109.774 84.2411ZM108.347 86.1653C107.202 87.5717 105.905 88.9265 104.453 90.2296L104.72 90.5273C106.186 89.2112 107.499 87.8414 108.657 86.4177L108.347 86.1653ZM104.586 90.5784H112.549V90.1784H104.586V90.5784ZM112.349 90.3784V92H112.749V90.3784H112.349ZM112.549 91.8H101.91V92.2H112.549V91.8ZM102.11 92V90.6553H101.71V92H102.11ZM102.037 90.8097C103.688 89.4502 105.163 88.0413 106.463 86.5827L106.164 86.3167C104.88 87.7585 103.419 89.1533 101.783 90.5009L102.037 90.8097ZM106.463 86.5824C107.021 85.9541 107.565 85.2863 108.095 84.579L107.775 84.339C107.251 85.038 106.714 85.6973 106.164 86.317L106.463 86.5824ZM108.095 84.579C108.628 83.869 109.103 83.1409 109.52 82.3945L109.171 82.1992C108.763 82.9294 108.297 83.6427 107.775 84.339L108.095 84.579ZM109.521 82.3937C109.94 81.636 110.275 80.8683 110.525 80.0906L110.144 79.968C109.902 80.7196 109.578 81.4636 109.171 82.2001L109.521 82.3937ZM110.524 80.0919C110.785 79.3001 110.917 78.5187 110.917 77.7485H110.517C110.517 78.4725 110.393 79.2116 110.145 79.9667L110.524 80.0919ZM110.917 77.7485C110.917 77.1752 110.83 76.6653 110.652 76.2234L110.281 76.3733C110.436 76.7576 110.517 77.2145 110.517 77.7485H110.917ZM110.652 76.2234C110.476 75.788 110.237 75.4208 109.933 75.1264L109.655 75.4137C109.913 75.6642 110.123 75.9825 110.281 76.3733L110.652 76.2234ZM109.933 75.1264C109.631 74.834 109.282 74.6167 108.886 74.4752L108.751 74.8519C109.093 74.9742 109.394 75.1611 109.655 75.4137L109.933 75.1264ZM108.891 74.4773C108.507 74.3274 108.104 74.2526 107.685 74.2526V74.6526C108.056 74.6526 108.409 74.7185 108.746 74.8499L108.891 74.4773ZM107.685 74.2526H107.039V74.6526H107.685V74.2526Z" fill="#37A600" mask="url(#path-17-outside-3_2162_9838)"/>
<mask id="path-19-outside-4_2162_9838" maskUnits="userSpaceOnUse" x="132" y="72" width="11" height="21" fill="black">
<rect fill="white" x="132" y="72" width="11" height="21"/>
<path d="M142.536 87.623C142.536 88.2646 142.413 88.8667 142.167 89.4292C141.93 89.9917 141.6 90.4839 141.178 90.9058C140.756 91.3276 140.264 91.6616 139.702 91.9077C139.139 92.145 138.537 92.2637 137.896 92.2637H137.091C136.45 92.2637 135.843 92.145 135.272 91.9077C134.709 91.6616 134.217 91.3276 133.795 90.9058C133.374 90.4839 133.04 89.9917 132.793 89.4292C132.556 88.8667 132.438 88.2646 132.438 87.623V87.1353L134.138 86.8716V87.623C134.138 88.0449 134.217 88.4404 134.375 88.8096C134.534 89.1699 134.749 89.4907 135.021 89.772C135.303 90.0444 135.624 90.2598 135.984 90.418C136.353 90.5762 136.749 90.6553 137.17 90.6553H137.816C138.238 90.6553 138.629 90.5762 138.99 90.418C139.359 90.2598 139.68 90.0444 139.952 89.772C140.225 89.4907 140.44 89.1699 140.598 88.8096C140.756 88.4404 140.835 88.0449 140.835 87.623V86.0542C140.835 85.6323 140.756 85.2412 140.598 84.8809C140.44 84.5117 140.225 84.1909 139.952 83.9185C139.68 83.646 139.359 83.4307 138.99 83.2725C138.629 83.1143 138.238 83.0352 137.816 83.0352H136.551V81.4136H137.816C138.238 81.4136 138.629 81.3345 138.99 81.1763C139.359 81.0181 139.68 80.8027 139.952 80.5303C140.225 80.2578 140.44 79.9414 140.598 79.5811C140.756 79.2119 140.835 78.8164 140.835 78.3945V77.4717C140.835 77.0498 140.756 76.6587 140.598 76.2983C140.44 75.9292 140.225 75.6084 139.952 75.3359C139.68 75.0635 139.359 74.8481 138.99 74.6899C138.629 74.5317 138.238 74.4526 137.816 74.4526H137.17C136.749 74.4526 136.353 74.5317 135.984 74.6899C135.624 74.8481 135.303 75.0635 135.021 75.3359C134.749 75.6084 134.534 75.9292 134.375 76.2983C134.217 76.6587 134.138 77.0498 134.138 77.4717V78.2363L132.438 77.9595V77.4717C132.438 76.8301 132.556 76.228 132.793 75.6655C133.04 75.103 133.374 74.6108 133.795 74.189C134.217 73.7671 134.709 73.4375 135.272 73.2002C135.843 72.9541 136.45 72.8311 137.091 72.8311H137.896C138.537 72.8311 139.139 72.9541 139.702 73.2002C140.264 73.4375 140.756 73.7671 141.178 74.189C141.6 74.6108 141.93 75.103 142.167 75.6655C142.413 76.228 142.536 76.8301 142.536 77.4717V78.1177C142.536 78.5659 142.475 78.9966 142.352 79.4097C142.237 79.814 142.07 80.1919 141.851 80.5435C141.64 80.895 141.385 81.2158 141.086 81.5059C140.787 81.7871 140.453 82.0288 140.084 82.231C140.453 82.4243 140.787 82.666 141.086 82.9561C141.385 83.2373 141.64 83.5537 141.851 83.9053C142.07 84.2568 142.237 84.6392 142.352 85.0522C142.475 85.4565 142.536 85.8828 142.536 86.3311V87.623Z"/>
</mask>
<path d="M142.536 87.623C142.536 88.2646 142.413 88.8667 142.167 89.4292C141.93 89.9917 141.6 90.4839 141.178 90.9058C140.756 91.3276 140.264 91.6616 139.702 91.9077C139.139 92.145 138.537 92.2637 137.896 92.2637H137.091C136.45 92.2637 135.843 92.145 135.272 91.9077C134.709 91.6616 134.217 91.3276 133.795 90.9058C133.374 90.4839 133.04 89.9917 132.793 89.4292C132.556 88.8667 132.438 88.2646 132.438 87.623V87.1353L134.138 86.8716V87.623C134.138 88.0449 134.217 88.4404 134.375 88.8096C134.534 89.1699 134.749 89.4907 135.021 89.772C135.303 90.0444 135.624 90.2598 135.984 90.418C136.353 90.5762 136.749 90.6553 137.17 90.6553H137.816C138.238 90.6553 138.629 90.5762 138.99 90.418C139.359 90.2598 139.68 90.0444 139.952 89.772C140.225 89.4907 140.44 89.1699 140.598 88.8096C140.756 88.4404 140.835 88.0449 140.835 87.623V86.0542C140.835 85.6323 140.756 85.2412 140.598 84.8809C140.44 84.5117 140.225 84.1909 139.952 83.9185C139.68 83.646 139.359 83.4307 138.99 83.2725C138.629 83.1143 138.238 83.0352 137.816 83.0352H136.551V81.4136H137.816C138.238 81.4136 138.629 81.3345 138.99 81.1763C139.359 81.0181 139.68 80.8027 139.952 80.5303C140.225 80.2578 140.44 79.9414 140.598 79.5811C140.756 79.2119 140.835 78.8164 140.835 78.3945V77.4717C140.835 77.0498 140.756 76.6587 140.598 76.2983C140.44 75.9292 140.225 75.6084 139.952 75.3359C139.68 75.0635 139.359 74.8481 138.99 74.6899C138.629 74.5317 138.238 74.4526 137.816 74.4526H137.17C136.749 74.4526 136.353 74.5317 135.984 74.6899C135.624 74.8481 135.303 75.0635 135.021 75.3359C134.749 75.6084 134.534 75.9292 134.375 76.2983C134.217 76.6587 134.138 77.0498 134.138 77.4717V78.2363L132.438 77.9595V77.4717C132.438 76.8301 132.556 76.228 132.793 75.6655C133.04 75.103 133.374 74.6108 133.795 74.189C134.217 73.7671 134.709 73.4375 135.272 73.2002C135.843 72.9541 136.45 72.8311 137.091 72.8311H137.896C138.537 72.8311 139.139 72.9541 139.702 73.2002C140.264 73.4375 140.756 73.7671 141.178 74.189C141.6 74.6108 141.93 75.103 142.167 75.6655C142.413 76.228 142.536 76.8301 142.536 77.4717V78.1177C142.536 78.5659 142.475 78.9966 142.352 79.4097C142.237 79.814 142.07 80.1919 141.851 80.5435C141.64 80.895 141.385 81.2158 141.086 81.5059C140.787 81.7871 140.453 82.0288 140.084 82.231C140.453 82.4243 140.787 82.666 141.086 82.9561C141.385 83.2373 141.64 83.5537 141.851 83.9053C142.07 84.2568 142.237 84.6392 142.352 85.0522C142.475 85.4565 142.536 85.8828 142.536 86.3311V87.623Z" fill="#37A600"/>
<path d="M142.167 89.4292L141.984 89.349L141.983 89.3515L142.167 89.4292ZM139.702 91.9077L139.779 92.092L139.782 92.0909L139.702 91.9077ZM135.272 91.9077L135.192 92.091L135.195 92.0924L135.272 91.9077ZM132.793 89.4292L132.609 89.5069L132.61 89.5094L132.793 89.4292ZM132.438 87.1353L132.407 86.9376L132.238 86.9639V87.1353H132.438ZM134.138 86.8716H134.338V86.6382L134.108 86.6739L134.138 86.8716ZM134.375 88.8096L134.192 88.8884L134.192 88.89L134.375 88.8096ZM135.021 89.772L134.878 89.9112L134.882 89.9156L135.021 89.772ZM135.984 90.418L135.903 90.6011L135.905 90.6018L135.984 90.418ZM138.99 90.418L138.911 90.2341L138.909 90.2348L138.99 90.418ZM139.952 89.772L140.094 89.9134L140.096 89.9111L139.952 89.772ZM140.598 88.8096L140.781 88.89L140.782 88.8884L140.598 88.8096ZM140.598 84.8809L140.414 84.9596L140.415 84.9613L140.598 84.8809ZM139.952 83.9185L139.811 84.0599L139.952 83.9185ZM138.99 83.2725L138.909 83.4556L138.911 83.4563L138.99 83.2725ZM136.551 83.0352H136.351V83.2352H136.551V83.0352ZM136.551 81.4136V81.2136H136.351V81.4136H136.551ZM138.99 81.1763L138.911 80.9924L138.909 80.9931L138.99 81.1763ZM140.598 79.5811L140.781 79.6615L140.782 79.6598L140.598 79.5811ZM140.598 76.2983L140.414 76.3771L140.415 76.3787L140.598 76.2983ZM138.99 74.6899L138.909 74.8731L138.911 74.8738L138.99 74.6899ZM135.984 74.6899L135.905 74.5061L135.903 74.5068L135.984 74.6899ZM135.021 75.3359L134.882 75.1923L134.88 75.1945L135.021 75.3359ZM134.375 76.2983L134.559 76.3787L134.559 76.3771L134.375 76.2983ZM134.138 78.2363L134.106 78.4337L134.338 78.4715V78.2363H134.138ZM132.438 77.9595H132.238V78.1295L132.405 78.1569L132.438 77.9595ZM132.793 75.6655L132.61 75.5854L132.609 75.5878L132.793 75.6655ZM135.272 73.2002L135.35 73.3845L135.351 73.3839L135.272 73.2002ZM139.702 73.2002L139.621 73.3834L139.624 73.3845L139.702 73.2002ZM142.167 75.6655L141.983 75.7433L141.984 75.7457L142.167 75.6655ZM142.352 79.4097L142.16 79.3526L142.159 79.3553L142.352 79.4097ZM141.851 80.5435L141.681 80.4374L141.679 80.4406L141.851 80.5435ZM141.086 81.5059L141.223 81.6515L141.225 81.6494L141.086 81.5059ZM140.084 82.231L139.988 82.0555L139.66 82.2349L139.991 82.4081L140.084 82.231ZM141.086 82.9561L140.947 83.0996L140.949 83.1017L141.086 82.9561ZM141.851 83.9053L141.679 84.0082L141.681 84.0113L141.851 83.9053ZM142.352 85.0522L142.159 85.1056L142.16 85.1105L142.352 85.0522ZM142.336 87.623C142.336 88.2383 142.218 88.813 141.984 89.349L142.35 89.5094C142.608 88.9204 142.736 88.291 142.736 87.623H142.336ZM141.983 89.3515C141.755 89.8907 141.44 90.3612 141.037 90.7643L141.32 91.0472C141.76 90.6066 142.104 90.0927 142.351 89.5069L141.983 89.3515ZM141.037 90.7643C140.633 91.1681 140.162 91.4881 139.621 91.7245L139.782 92.0909C140.366 91.8352 140.88 91.4872 141.32 91.0472L141.037 90.7643ZM139.624 91.7234C139.087 91.9498 138.512 92.0637 137.896 92.0637V92.4637C138.562 92.4637 139.191 92.3402 139.779 92.092L139.624 91.7234ZM137.896 92.0637H137.091V92.4637H137.896V92.0637ZM137.091 92.0637C136.475 92.0637 135.895 91.9498 135.349 91.723L135.195 92.0924C135.792 92.3402 136.424 92.4637 137.091 92.4637V92.0637ZM135.352 91.7245C134.812 91.4881 134.341 91.1681 133.937 90.7643L133.654 91.0472C134.094 91.4872 134.607 91.8352 135.192 92.0909L135.352 91.7245ZM133.937 90.7643C133.533 90.3606 133.213 89.8894 132.977 89.349L132.61 89.5094C132.866 90.094 133.214 90.6072 133.654 91.0472L133.937 90.7643ZM132.978 89.3515C132.751 88.8148 132.637 88.2393 132.637 87.623H132.238C132.238 88.29 132.361 88.9186 132.609 89.5069L132.978 89.3515ZM132.637 87.623V87.1353H132.238V87.623H132.637ZM132.468 87.3329L134.169 87.0692L134.108 86.6739L132.407 86.9376L132.468 87.3329ZM133.938 86.8716V87.623H134.338V86.8716H133.938ZM133.938 87.623C133.938 88.0706 134.022 88.4931 134.192 88.8884L134.559 88.7308C134.412 88.3878 134.338 88.0192 134.338 87.623H133.938ZM134.192 88.89C134.36 89.272 134.589 89.6127 134.878 89.9111L135.165 89.6328C134.909 89.3687 134.707 89.0679 134.559 88.7292L134.192 88.89ZM134.882 89.9156C135.181 90.2047 135.521 90.4334 135.903 90.6011L136.064 90.2348C135.726 90.0861 135.425 89.8842 135.161 89.6283L134.882 89.9156ZM135.905 90.6018C136.3 90.7712 136.723 90.8553 137.17 90.8553V90.4553C136.774 90.4553 136.406 90.3811 136.063 90.2341L135.905 90.6018ZM137.17 90.8553H137.816V90.4553H137.17V90.8553ZM137.816 90.8553C138.264 90.8553 138.683 90.7712 139.07 90.6011L138.909 90.2348C138.576 90.3811 138.213 90.4553 137.816 90.4553V90.8553ZM139.069 90.6018C139.46 90.434 139.802 90.2046 140.094 89.9134L139.811 89.6306C139.557 89.8843 139.258 90.0855 138.911 90.2341L139.069 90.6018ZM140.096 89.9111C140.385 89.6127 140.614 89.272 140.781 88.89L140.415 88.7292C140.266 89.0679 140.064 89.3687 139.809 89.6328L140.096 89.9111ZM140.782 88.8884C140.951 88.4931 141.035 88.0706 141.035 87.623H140.635C140.635 88.0192 140.561 88.3878 140.414 88.7308L140.782 88.8884ZM141.035 87.623V86.0542H140.635V87.623H141.035ZM141.035 86.0542C141.035 85.6067 140.951 85.1879 140.781 84.8005L140.415 84.9613C140.561 85.2945 140.635 85.658 140.635 86.0542H141.035ZM140.782 84.8021C140.614 84.4106 140.385 84.0682 140.094 83.777L139.811 84.0599C140.064 84.3136 140.266 84.6129 140.414 84.9596L140.782 84.8021ZM140.094 83.777C139.802 83.4858 139.46 83.2564 139.069 83.0886L138.911 83.4563C139.258 83.6049 139.557 83.8062 139.811 84.0599L140.094 83.777ZM139.07 83.0893C138.683 82.9192 138.264 82.8352 137.816 82.8352V83.2352C138.213 83.2352 138.576 83.3093 138.909 83.4556L139.07 83.0893ZM137.816 82.8352H136.551V83.2352H137.816V82.8352ZM136.751 83.0352V81.4136H136.351V83.0352H136.751ZM136.551 81.6136H137.816V81.2136H136.551V81.6136ZM137.816 81.6136C138.264 81.6136 138.683 81.5295 139.07 81.3594L138.909 80.9931C138.576 81.1394 138.213 81.2136 137.816 81.2136V81.6136ZM139.069 81.3601C139.46 81.1923 139.802 80.9629 140.094 80.6717L139.811 80.3889C139.557 80.6426 139.258 80.8438 138.911 80.9924L139.069 81.3601ZM140.094 80.6717C140.384 80.3813 140.613 80.0441 140.781 79.6615L140.415 79.5007C140.267 79.8387 140.065 80.1343 139.811 80.3889L140.094 80.6717ZM140.782 79.6598C140.951 79.2646 141.035 78.8421 141.035 78.3945H140.635C140.635 78.7907 140.561 79.1593 140.414 79.5023L140.782 79.6598ZM141.035 78.3945V77.4717H140.635V78.3945H141.035ZM141.035 77.4717C141.035 77.0241 140.951 76.6054 140.781 76.2179L140.415 76.3787C140.561 76.712 140.635 77.0755 140.635 77.4717H141.035ZM140.782 76.2196C140.614 75.828 140.385 75.4857 140.094 75.1945L139.811 75.4774C140.064 75.7311 140.266 76.0304 140.414 76.3771L140.782 76.2196ZM140.094 75.1945C139.802 74.9033 139.46 74.6739 139.069 74.5061L138.911 74.8738C139.258 75.0224 139.557 75.2236 139.811 75.4774L140.094 75.1945ZM139.07 74.5068C138.683 74.3367 138.264 74.2526 137.816 74.2526V74.6526C138.213 74.6526 138.576 74.7268 138.909 74.8731L139.07 74.5068ZM137.816 74.2526H137.17V74.6526H137.816V74.2526ZM137.17 74.2526C136.723 74.2526 136.3 74.3367 135.905 74.5061L136.063 74.8738C136.406 74.7268 136.774 74.6526 137.17 74.6526V74.2526ZM135.903 74.5068C135.521 74.6745 135.181 74.9032 134.882 75.1923L135.161 75.4796C135.425 75.2238 135.726 75.0218 136.064 74.8731L135.903 74.5068ZM134.88 75.1945C134.589 75.4857 134.359 75.828 134.192 76.2196L134.559 76.3771C134.708 76.0304 134.909 75.7311 135.163 75.4774L134.88 75.1945ZM134.192 76.2179C134.022 76.6054 133.938 77.0241 133.938 77.4717H134.338C134.338 77.0755 134.412 76.712 134.559 76.3787L134.192 76.2179ZM133.938 77.4717V78.2363H134.338V77.4717H133.938ZM134.17 78.0389L132.47 77.7621L132.405 78.1569L134.106 78.4337L134.17 78.0389ZM132.637 77.9595V77.4717H132.238V77.9595H132.637ZM132.637 77.4717C132.637 76.8554 132.751 76.2799 132.978 75.7433L132.609 75.5878C132.361 76.1761 132.238 76.8048 132.238 77.4717H132.637ZM132.977 75.7457C133.213 75.2054 133.533 74.7341 133.937 74.3304L133.654 74.0475C133.214 74.4876 132.866 75.0007 132.61 75.5854L132.977 75.7457ZM133.937 74.3304C134.34 73.9272 134.81 73.612 135.35 73.3845L135.194 73.0159C134.609 73.263 134.095 73.607 133.654 74.0475L133.937 74.3304ZM135.351 73.3839C135.897 73.1489 136.476 73.0311 137.091 73.0311V72.6311C136.423 72.6311 135.79 72.7593 135.193 73.0165L135.351 73.3839ZM137.091 73.0311H137.896V72.6311H137.091V73.0311ZM137.896 73.0311C138.511 73.0311 139.085 73.1489 139.621 73.3834L139.782 73.017C139.193 72.7593 138.563 72.6311 137.896 72.6311V73.0311ZM139.624 73.3845C140.163 73.612 140.634 73.9272 141.037 74.3304L141.32 74.0475C140.879 73.607 140.365 73.263 139.779 73.0159L139.624 73.3845ZM141.037 74.3304C141.44 74.7336 141.755 75.204 141.983 75.7433L142.351 75.5878C142.104 75.0021 141.76 74.4881 141.32 74.0475L141.037 74.3304ZM141.984 75.7457C142.218 76.2818 142.336 76.8564 142.336 77.4717H142.736C142.736 76.8038 142.608 76.1743 142.35 75.5854L141.984 75.7457ZM142.336 77.4717V78.1177H142.736V77.4717H142.336ZM142.336 78.1177C142.336 78.5474 142.277 78.9587 142.16 79.3526L142.543 79.4668C142.672 79.0344 142.736 78.5845 142.736 78.1177H142.336ZM142.159 79.3553C142.05 79.7416 141.891 80.1021 141.681 80.4375L142.02 80.6495C142.25 80.2816 142.425 79.8863 142.544 79.4641L142.159 79.3553ZM141.679 80.4406C141.477 80.777 141.233 81.0842 140.947 81.3623L141.225 81.6494C141.536 81.3474 141.802 81.013 142.022 80.6464L141.679 80.4406ZM140.949 81.3602C140.663 81.6295 140.343 81.8613 139.988 82.0555L140.18 82.4064C140.564 82.1963 140.912 81.9447 141.223 81.6515L140.949 81.3602ZM139.991 82.4081C140.343 82.5926 140.662 82.8229 140.947 83.0996L141.225 82.8125C140.913 82.5091 140.563 82.2561 140.177 82.0538L139.991 82.4081ZM140.949 83.1017C141.234 83.3704 141.478 83.6724 141.679 84.0082L142.022 83.8024C141.802 83.435 141.535 83.1042 141.223 82.8104L140.949 83.1017ZM141.681 84.0113C141.89 84.3459 142.05 84.7104 142.159 85.1056L142.544 84.9989C142.425 84.5679 142.25 84.1677 142.02 83.7993L141.681 84.0113ZM142.16 85.1105C142.277 85.4948 142.336 85.9013 142.336 86.3311H142.736C142.736 85.8643 142.672 85.4183 142.543 84.994L142.16 85.1105ZM142.336 86.3311V87.623H142.736V86.3311H142.336Z" fill="#37A600" mask="url(#path-19-outside-4_2162_9838)"/>
<path d="M167.704 116.805C167.704 117.675 168.219 118.175 169.331 118.438L170.352 118.674C170.937 118.814 171.211 119.04 171.211 119.389C171.211 119.856 170.701 120.178 169.981 120.178C169.283 120.178 168.853 119.899 168.708 119.448H167.553C167.655 120.484 168.563 121.113 169.954 121.113C171.351 121.113 172.376 120.377 172.376 119.276C172.376 118.417 171.855 117.938 170.744 117.681L169.771 117.455C169.138 117.31 168.842 117.09 168.842 116.741C168.842 116.284 169.331 115.978 169.976 115.978C170.631 115.978 171.05 116.252 171.157 116.682H172.264C172.151 115.65 171.292 115.038 169.976 115.038C168.654 115.038 167.704 115.769 167.704 116.805ZM176.168 116.021C177.022 116.021 177.581 116.617 177.608 117.536H174.654C174.718 116.623 175.314 116.021 176.168 116.021ZM177.603 119.421C177.388 119.877 176.91 120.13 176.211 120.13C175.288 120.13 174.691 119.48 174.654 118.454V118.39H178.784V117.987C178.784 116.15 177.801 115.038 176.174 115.038C174.525 115.038 173.478 116.225 173.478 118.094C173.478 119.963 174.503 121.113 176.179 121.113C177.517 121.113 178.462 120.463 178.714 119.421H177.603ZM185.122 117.063C184.972 115.892 184.085 115.038 182.619 115.038C180.917 115.038 179.88 116.182 179.88 118.057C179.88 119.963 180.922 121.113 182.625 121.113C184.069 121.113 184.972 120.296 185.122 119.12H184C183.849 119.749 183.35 120.082 182.619 120.082C181.658 120.082 181.062 119.324 181.062 118.057C181.062 116.811 181.652 116.069 182.619 116.069C183.393 116.069 183.865 116.494 184 117.063H185.122ZM188.914 121.113C190.622 121.113 191.669 119.969 191.669 118.073C191.669 116.188 190.617 115.038 188.914 115.038C187.206 115.038 186.153 116.188 186.153 118.073C186.153 119.969 187.201 121.113 188.914 121.113ZM188.914 120.087C187.91 120.087 187.346 119.351 187.346 118.073C187.346 116.805 187.91 116.064 188.914 116.064C189.913 116.064 190.482 116.805 190.482 118.073C190.482 119.346 189.913 120.087 188.914 120.087ZM193.061 121H194.215V117.579C194.215 116.666 194.758 116.096 195.612 116.096C196.466 116.096 196.874 116.563 196.874 117.503V121H198.029V117.213C198.029 115.822 197.309 115.038 196.004 115.038C195.123 115.038 194.543 115.43 194.258 116.08H194.172V115.151H193.061V121ZM201.794 121.097C202.6 121.097 203.282 120.715 203.631 120.076H203.722V121H204.829V112.868H203.674V116.08H203.588C203.271 115.436 202.594 115.054 201.794 115.054C200.317 115.054 199.366 116.225 199.366 118.073C199.366 119.926 200.306 121.097 201.794 121.097ZM202.122 116.091C203.088 116.091 203.695 116.859 203.695 118.078C203.695 119.303 203.094 120.06 202.122 120.06C201.144 120.06 200.559 119.313 200.559 118.073C200.559 116.843 201.149 116.091 202.122 116.091ZM206.429 116.805C206.429 117.675 206.945 118.175 208.057 118.438L209.077 118.674C209.663 118.814 209.937 119.04 209.937 119.389C209.937 119.856 209.426 120.178 208.707 120.178C208.008 120.178 207.579 119.899 207.434 119.448H206.279C206.381 120.484 207.289 121.113 208.68 121.113C210.076 121.113 211.102 120.377 211.102 119.276C211.102 118.417 210.581 117.938 209.469 117.681L208.497 117.455C207.863 117.31 207.568 117.09 207.568 116.741C207.568 116.284 208.057 115.978 208.701 115.978C209.356 115.978 209.775 116.252 209.883 116.682H210.989C210.876 115.65 210.017 115.038 208.701 115.038C207.38 115.038 206.429 115.769 206.429 116.805Z" fill="white"/>
<rect opacity="0.8" x="167" y="60" width="27" height="46" rx="5" fill="white"/>
<rect opacity="0.8" x="197" y="60" width="27" height="46" rx="5" fill="white"/>
<mask id="path-24-outside-5_2162_9838" maskUnits="userSpaceOnUse" x="174" y="72" width="12" height="21" fill="black">
<rect fill="white" x="174" y="72" width="12" height="21"/>
<path d="M183.796 88.7305V92H182.095V88.7305H174.501V87.9263L182.899 73.0947H183.796V87.1089H185.417V88.7305H183.796ZM182.095 77.7485L176.888 87.1089H182.095V77.7485Z"/>
</mask>
<path d="M183.796 88.7305V92H182.095V88.7305H174.501V87.9263L182.899 73.0947H183.796V87.1089H185.417V88.7305H183.796ZM182.095 77.7485L176.888 87.1089H182.095V77.7485Z" fill="#37A600"/>
<path d="M183.796 88.7305V88.5305H183.596V88.7305H183.796ZM183.796 92V92.2H183.996V92H183.796ZM182.095 92H181.895V92.2H182.095V92ZM182.095 88.7305H182.295V88.5305H182.095V88.7305ZM174.501 88.7305H174.301V88.9305H174.501V88.7305ZM174.501 87.9263L174.327 87.8277L174.301 87.8736V87.9263H174.501ZM182.899 73.0947V72.8947H182.783L182.725 72.9962L182.899 73.0947ZM183.796 73.0947H183.996V72.8947H183.796V73.0947ZM183.796 87.1089H183.596V87.3089H183.796V87.1089ZM185.417 87.1089H185.617V86.9089H185.417V87.1089ZM185.417 88.7305V88.9305H185.617V88.7305H185.417ZM182.095 77.7485H182.295V76.9777L181.92 77.6513L182.095 77.7485ZM176.888 87.1089L176.713 87.0117L176.548 87.3089H176.888V87.1089ZM182.095 87.1089V87.3089H182.295V87.1089H182.095ZM183.596 88.7305V92H183.996V88.7305H183.596ZM183.796 91.8H182.095V92.2H183.796V91.8ZM182.295 92V88.7305H181.895V92H182.295ZM182.095 88.5305H174.501V88.9305H182.095V88.5305ZM174.701 88.7305V87.9263H174.301V88.7305H174.701ZM174.676 88.0248L183.073 73.1933L182.725 72.9962L174.327 87.8277L174.676 88.0248ZM182.899 73.2947H183.796V72.8947H182.899V73.2947ZM183.596 73.0947V87.1089H183.996V73.0947H183.596ZM183.796 87.3089H185.417V86.9089H183.796V87.3089ZM185.217 87.1089V88.7305H185.617V87.1089H185.217ZM185.417 88.5305H183.796V88.9305H185.417V88.5305ZM181.92 77.6513L176.713 87.0117L177.062 87.2061L182.27 77.8458L181.92 77.6513ZM176.888 87.3089H182.095V86.9089H176.888V87.3089ZM182.295 87.1089V77.7485H181.895V87.1089H182.295Z" fill="#37A600" mask="url(#path-24-outside-5_2162_9838)"/>
<mask id="path-26-outside-6_2162_9838" maskUnits="userSpaceOnUse" x="205" y="72" width="11" height="21" fill="black">
<rect fill="white" x="205" y="72" width="11" height="21"/>
<path d="M215.536 87.623C215.536 88.2646 215.413 88.8667 215.167 89.4292C214.93 89.9917 214.6 90.4839 214.178 90.9058C213.756 91.3276 213.264 91.6616 212.702 91.9077C212.139 92.145 211.537 92.2637 210.896 92.2637H210.091C209.45 92.2637 208.843 92.145 208.272 91.9077C207.709 91.6616 207.217 91.3276 206.795 90.9058C206.374 90.4839 206.04 89.9917 205.793 89.4292C205.556 88.8667 205.438 88.2646 205.438 87.623V87.333H207.138V87.623C207.138 88.0449 207.217 88.4404 207.375 88.8096C207.534 89.1699 207.749 89.4907 208.021 89.772C208.303 90.0444 208.624 90.2598 208.984 90.418C209.353 90.5762 209.749 90.6553 210.17 90.6553H210.816C211.238 90.6553 211.629 90.5762 211.99 90.418C212.359 90.2598 212.68 90.0444 212.952 89.772C213.225 89.4907 213.44 89.1699 213.598 88.8096C213.756 88.4404 213.835 88.0449 213.835 87.623V83.958C213.835 83.5361 213.756 83.145 213.598 82.7847C213.44 82.4155 213.225 82.0947 212.952 81.8223C212.68 81.541 212.359 81.3213 211.99 81.1631C211.629 81.0049 211.238 80.9258 210.816 80.9258H210.17C209.749 80.9258 209.353 81.0049 208.984 81.1631C208.624 81.3213 208.303 81.541 208.021 81.8223C207.749 82.0947 207.534 82.4155 207.375 82.7847C207.217 83.145 207.138 83.5361 207.138 83.958H205.438L206.519 73.0947H214.6V74.7163H208.114L207.494 80.5303C207.898 80.1436 208.369 79.8447 208.905 79.6338C209.441 79.4141 210.017 79.3042 210.632 79.3042H210.896C211.537 79.3042 212.139 79.4272 212.702 79.6733C213.264 79.9106 213.756 80.2402 214.178 80.6621C214.6 81.084 214.93 81.5806 215.167 82.1519C215.413 82.7144 215.536 83.3164 215.536 83.958V87.623Z"/>
</mask>
<path d="M215.536 87.623C215.536 88.2646 215.413 88.8667 215.167 89.4292C214.93 89.9917 214.6 90.4839 214.178 90.9058C213.756 91.3276 213.264 91.6616 212.702 91.9077C212.139 92.145 211.537 92.2637 210.896 92.2637H210.091C209.45 92.2637 208.843 92.145 208.272 91.9077C207.709 91.6616 207.217 91.3276 206.795 90.9058C206.374 90.4839 206.04 89.9917 205.793 89.4292C205.556 88.8667 205.438 88.2646 205.438 87.623V87.333H207.138V87.623C207.138 88.0449 207.217 88.4404 207.375 88.8096C207.534 89.1699 207.749 89.4907 208.021 89.772C208.303 90.0444 208.624 90.2598 208.984 90.418C209.353 90.5762 209.749 90.6553 210.17 90.6553H210.816C211.238 90.6553 211.629 90.5762 211.99 90.418C212.359 90.2598 212.68 90.0444 212.952 89.772C213.225 89.4907 213.44 89.1699 213.598 88.8096C213.756 88.4404 213.835 88.0449 213.835 87.623V83.958C213.835 83.5361 213.756 83.145 213.598 82.7847C213.44 82.4155 213.225 82.0947 212.952 81.8223C212.68 81.541 212.359 81.3213 211.99 81.1631C211.629 81.0049 211.238 80.9258 210.816 80.9258H210.17C209.749 80.9258 209.353 81.0049 208.984 81.1631C208.624 81.3213 208.303 81.541 208.021 81.8223C207.749 82.0947 207.534 82.4155 207.375 82.7847C207.217 83.145 207.138 83.5361 207.138 83.958H205.438L206.519 73.0947H214.6V74.7163H208.114L207.494 80.5303C207.898 80.1436 208.369 79.8447 208.905 79.6338C209.441 79.4141 210.017 79.3042 210.632 79.3042H210.896C211.537 79.3042 212.139 79.4272 212.702 79.6733C213.264 79.9106 213.756 80.2402 214.178 80.6621C214.6 81.084 214.93 81.5806 215.167 82.1519C215.413 82.7144 215.536 83.3164 215.536 83.958V87.623Z" fill="#37A600"/>
<path d="M215.167 89.4292L214.984 89.349L214.983 89.3515L215.167 89.4292ZM212.702 91.9077L212.779 92.092L212.782 92.0909L212.702 91.9077ZM208.272 91.9077L208.192 92.091L208.195 92.0924L208.272 91.9077ZM205.793 89.4292L205.609 89.5069L205.61 89.5094L205.793 89.4292ZM205.438 87.333V87.133H205.238V87.333H205.438ZM207.138 87.333H207.338V87.133H207.138V87.333ZM207.375 88.8096L207.192 88.8884L207.192 88.89L207.375 88.8096ZM208.021 89.772L207.878 89.9112L207.882 89.9156L208.021 89.772ZM208.984 90.418L208.903 90.6011L208.905 90.6018L208.984 90.418ZM211.99 90.418L211.911 90.2341L211.909 90.2348L211.99 90.418ZM212.952 89.772L213.094 89.9134L213.096 89.9111L212.952 89.772ZM213.598 88.8096L213.781 88.89L213.782 88.8884L213.598 88.8096ZM213.598 82.7847L213.414 82.8635L213.415 82.8651L213.598 82.7847ZM212.952 81.8223L212.808 81.9614L212.811 81.9637L212.952 81.8223ZM211.99 81.1631L211.909 81.3462L211.911 81.3469L211.99 81.1631ZM208.984 81.1631L208.905 80.9792L208.903 80.98L208.984 81.1631ZM207.375 82.7847L207.559 82.8651L207.559 82.8635L207.375 82.7847ZM207.138 83.958V84.158H207.338V83.958H207.138ZM205.438 83.958L205.238 83.9382L205.217 84.158H205.438V83.958ZM206.519 73.0947V72.8947H206.337L206.32 73.0749L206.519 73.0947ZM214.6 73.0947H214.8V72.8947H214.6V73.0947ZM214.6 74.7163V74.9163H214.8V74.7163H214.6ZM208.114 74.7163V74.5163H207.934L207.915 74.6951L208.114 74.7163ZM207.494 80.5303L207.295 80.5091L207.237 81.0527L207.632 80.6748L207.494 80.5303ZM208.905 79.6338L208.978 79.8199L208.981 79.8188L208.905 79.6338ZM212.702 79.6733L212.621 79.8566L212.624 79.8576L212.702 79.6733ZM215.167 82.1519L214.982 82.2286L214.984 82.232L215.167 82.1519ZM215.336 87.623C215.336 88.2383 215.218 88.813 214.984 89.349L215.35 89.5094C215.608 88.9204 215.736 88.291 215.736 87.623H215.336ZM214.983 89.3515C214.755 89.8907 214.44 90.3612 214.037 90.7643L214.32 91.0472C214.76 90.6066 215.104 90.0927 215.351 89.5069L214.983 89.3515ZM214.037 90.7643C213.633 91.1681 213.162 91.4881 212.621 91.7245L212.782 92.0909C213.366 91.8352 213.88 91.4872 214.32 91.0472L214.037 90.7643ZM212.624 91.7234C212.087 91.9498 211.512 92.0637 210.896 92.0637V92.4637C211.562 92.4637 212.191 92.3402 212.779 92.092L212.624 91.7234ZM210.896 92.0637H210.091V92.4637H210.896V92.0637ZM210.091 92.0637C209.475 92.0637 208.895 91.9498 208.349 91.723L208.195 92.0924C208.792 92.3402 209.424 92.4637 210.091 92.4637V92.0637ZM208.352 91.7245C207.812 91.4881 207.341 91.1681 206.937 90.7643L206.654 91.0472C207.094 91.4872 207.607 91.8352 208.192 92.0909L208.352 91.7245ZM206.937 90.7643C206.533 90.3606 206.213 89.8894 205.977 89.349L205.61 89.5094C205.866 90.094 206.214 90.6072 206.654 91.0472L206.937 90.7643ZM205.978 89.3515C205.751 88.8148 205.637 88.2393 205.637 87.623H205.238C205.238 88.29 205.361 88.9186 205.609 89.5069L205.978 89.3515ZM205.637 87.623V87.333H205.238V87.623H205.637ZM205.438 87.533H207.138V87.133H205.438V87.533ZM206.938 87.333V87.623H207.338V87.333H206.938ZM206.938 87.623C206.938 88.0706 207.022 88.4931 207.192 88.8884L207.559 88.7308C207.412 88.3878 207.338 88.0192 207.338 87.623H206.938ZM207.192 88.89C207.36 89.272 207.589 89.6127 207.878 89.9111L208.165 89.6328C207.909 89.3687 207.707 89.0679 207.559 88.7292L207.192 88.89ZM207.882 89.9156C208.181 90.2047 208.521 90.4334 208.903 90.6011L209.064 90.2348C208.726 90.0861 208.425 89.8842 208.161 89.6283L207.882 89.9156ZM208.905 90.6018C209.3 90.7712 209.723 90.8553 210.17 90.8553V90.4553C209.774 90.4553 209.406 90.3811 209.063 90.2341L208.905 90.6018ZM210.17 90.8553H210.816V90.4553H210.17V90.8553ZM210.816 90.8553C211.264 90.8553 211.683 90.7712 212.07 90.6011L211.909 90.2348C211.576 90.3811 211.213 90.4553 210.816 90.4553V90.8553ZM212.069 90.6018C212.46 90.434 212.802 90.2046 213.094 89.9134L212.811 89.6306C212.557 89.8843 212.258 90.0855 211.911 90.2341L212.069 90.6018ZM213.096 89.9111C213.385 89.6127 213.614 89.272 213.781 88.89L213.415 88.7292C213.266 89.0679 213.064 89.3687 212.809 89.6328L213.096 89.9111ZM213.782 88.8884C213.951 88.4931 214.035 88.0706 214.035 87.623H213.635C213.635 88.0192 213.561 88.3878 213.414 88.7308L213.782 88.8884ZM214.035 87.623V83.958H213.635V87.623H214.035ZM214.035 83.958C214.035 83.5105 213.951 83.0918 213.781 82.7043L213.415 82.8651C213.561 83.1983 213.635 83.5618 213.635 83.958H214.035ZM213.782 82.7059C213.614 82.3144 213.385 81.9721 213.094 81.6808L212.811 81.9637C213.064 82.2174 213.266 82.5167 213.414 82.8635L213.782 82.7059ZM213.096 81.6831C212.804 81.3823 212.461 81.1476 212.069 80.9793L211.911 81.3469C212.256 81.4949 212.555 81.6997 212.809 81.9614L213.096 81.6831ZM212.07 80.98C211.683 80.8098 211.264 80.7258 210.816 80.7258V81.1258C211.213 81.1258 211.576 81.1999 211.909 81.3462L212.07 80.98ZM210.816 80.7258H210.17V81.1258H210.816V80.7258ZM210.17 80.7258C209.723 80.7258 209.3 80.8098 208.905 80.9793L209.063 81.3469C209.406 81.1999 209.774 81.1258 210.17 81.1258V80.7258ZM208.903 80.98C208.52 81.1483 208.179 81.3822 207.88 81.6808L208.163 81.9637C208.427 81.6998 208.727 81.4943 209.064 81.3462L208.903 80.98ZM207.88 81.6808C207.589 81.9721 207.359 82.3144 207.192 82.7059L207.559 82.8635C207.708 82.5167 207.909 82.2174 208.163 81.9637L207.88 81.6808ZM207.192 82.7043C207.022 83.0918 206.938 83.5105 206.938 83.958H207.338C207.338 83.5618 207.412 83.1983 207.559 82.8651L207.192 82.7043ZM207.138 83.758H205.438V84.158H207.138V83.758ZM205.637 83.9778L206.718 73.1145L206.32 73.0749L205.238 83.9382L205.637 83.9778ZM206.519 73.2947H214.6V72.8947H206.519V73.2947ZM214.4 73.0947V74.7163H214.8V73.0947H214.4ZM214.6 74.5163H208.114V74.9163H214.6V74.5163ZM207.915 74.6951L207.295 80.5091L207.693 80.5515L208.313 74.7375L207.915 74.6951ZM207.632 80.6748C208.017 80.3066 208.465 80.0216 208.978 79.8199L208.832 79.4477C208.272 79.6678 207.78 79.9805 207.356 80.3857L207.632 80.6748ZM208.981 79.8188C209.491 79.6096 210.041 79.5042 210.632 79.5042V79.1042C209.992 79.1042 209.391 79.2185 208.829 79.4487L208.981 79.8188ZM210.632 79.5042H210.896V79.1042H210.632V79.5042ZM210.896 79.5042C211.511 79.5042 212.085 79.622 212.621 79.8566L212.782 79.4901C212.193 79.2325 211.563 79.1042 210.896 79.1042V79.5042ZM212.624 79.8576C213.163 80.0851 213.634 80.4003 214.037 80.8035L214.32 80.5207C213.879 80.0801 213.365 79.7362 212.779 79.4891L212.624 79.8576ZM214.037 80.8035C214.439 81.2062 214.755 81.6806 214.982 82.2286L215.352 82.0751C215.105 81.4806 214.761 80.9618 214.32 80.5207L214.037 80.8035ZM214.984 82.232C215.218 82.7681 215.336 83.3427 215.336 83.958H215.736C215.736 83.2901 215.608 82.6606 215.35 82.0717L214.984 82.232ZM215.336 83.958V87.623H215.736V83.958H215.336Z" fill="#37A600" mask="url(#path-26-outside-6_2162_9838)"/>
<g opacity="0.5">
<circle cx="10" cy="10" r="9.35" transform="matrix(-1 0 0 1 222 26)" stroke="white" stroke-width="1.3"/>
<path d="M210.5 31L215.45 35.9497L210.5 40.8995" stroke="white" stroke-width="1.3" stroke-linecap="round" stroke-linejoin="round"/>
</g>
<defs>
<linearGradient id="paint0_linear_2162_9838" x1="0" y1="0" x2="237" y2="142" gradientUnits="userSpaceOnUse">
<stop stop-color="#70C050"/>
<stop offset="1" stop-color="#00ACFF"/>
</linearGradient>
</defs>
</svg>
